<?xml version="1.0" encoding="utf-8"?>
<!-- Generator: Adobe Illustrator 19.1.0, SVG Export Plug-In . SVG Version: 6.00 Build 0)  -->
<svg version="1.1" id="Layer_1" xmlns="http://www.w3.org/2000/svg" xmlns:xlink="http://www.w3.org/1999/xlink" x="0px" y="0px"
	 viewBox="-191 370.9 212 100" style="enable-background:new -191 370.9 212 100;" xml:space="preserve">
<style type="text/css">
	.st0{fill:#FFF;}
</style>
<path class="st0" d="M16.1,471h-202.2c-2.4,0-4.4-2-4.4-4.4l0,0c0-2.4,2-4.4,4.4-4.4H16.1c2.4,0,4.4,2,4.4,4.4l0,0
	C20.5,469.1,18.5,471,16.1,471z"/>
<g>
	<g>
		<path class="st0" d="M-72.2,431.1c-5.8,0-11.7,0-17.5,0c-2.9,0-4.7-1.8-4.7-4.7c0-7.2,0-14.5,0-21.7c0-2.9,1.8-4.7,4.7-4.7
			c11.7,0,23.4,0,35.1,0c3,0,4.8,1.8,4.8,4.8c0,7.2,0,14.5,0,21.7c0,2.9-1.8,4.7-4.7,4.7C-60.4,431.1-66.3,431.1-72.2,431.1z
			 M-89.9,407.1c0,6.6,0,13.1,0,19.6c11.9,0,23.7,0,35.6,0c0-6.5,0-12.9,0-19.5c-0.2,0.2-0.4,0.3-0.6,0.5
			c-5.1,4.5-10.1,9.1-15.2,13.6c-1.1,1-2.2,1-3.4,0c-4.1-3.5-8.1-7-12.1-10.5C-87,409.6-88.4,408.4-89.9,407.1z M-71.8,416.8
			c4.6-4.1,9.2-8.2,13.8-12.4c-9.5,0-18.8,0-28.2,0C-81.3,408.6-76.5,412.7-71.8,416.8z M-101.3,408.8c1.4,0,2.4-0.9,2.4-2.2
			c0-1.3-1-2.2-2.5-2.2c-1.6,0-3.2,0-4.9,0c-4.2,0-8.4,0-12.5,0c-1,0-1.8,0.4-2.2,1.3c-0.7,1.5,0.3,3.2,2,3.2c2.9,0,5.9,0,8.8,0
			C-107.1,408.8-104.2,408.8-101.3,408.8z M-106.7,417.7c1.8,0,3.6,0,5.4,0c0.3,0,0.5,0,0.8-0.1c1.1-0.3,1.8-1.3,1.7-2.4
			c-0.1-1.1-1-2-2.2-2c-3.6,0-7.3,0-10.9,0c-1.4,0-2.4,0.9-2.4,2.2c0,1.3,1,2.3,2.5,2.3C-110.2,417.8-108.4,417.7-106.7,417.7
			C-106.7,417.7-106.7,417.7-106.7,417.7z M-105.6,422.2c-1.2,0-2.2,1-2.2,2.2c0,1.2,1,2.2,2.2,2.2c1.5,0,3,0,4.5,0
			c1.2,0,2.2-1,2.2-2.2c0-1.2-1-2.2-2.2-2.2c-0.7,0-1.5,0-2.2,0C-104.1,422.2-104.8,422.2-105.6,422.2z"/>
		<g>
			<path class="st0" d="M-84.4,381c18.2,0,27.6,0,45.8,0c5.2,0,8.5,3.3,8.5,8.5c0,23.3,0,28.9,0,52.2c0,5.2-3.3,8.5-8.5,8.5
				c-13.8,0-18.8,0-32.6,0c-1.2,0-1.4,0.3-1.4,1.4c0.1,3,0,3,3.1,3.1c4.5,0.3,9,0.7,13.4,1.7c0.3,0.1,0.6,0.1,0.8,0.2
				c2.3,0.7,2.4,0.9,2.4,3.2c0,2.9-0.1,3.1-3.1,3.8c-4.4,1.1-8.8,1.4-13.3,1.7c-8.6,0.6-17.2,0.7-25.8,0.3c-5.7-0.3-11.4-0.6-17-1.8
				c-3.9-0.8-3.8-0.9-3.9-4.8c0-1.2,0.5-1.8,1.5-2.2c2.4-0.8,4.9-1.2,7.3-1.5c3.3-0.4,6.5-0.7,9.8-0.8c0.8,0,1.1-0.3,1.1-1.2
				c0-3.2,0-3.2-3.3-3.2c-13.2,0-17.6,0-30.8,0c-5.2,0-8.5-3.3-8.5-8.5c0-23.2,0-28.8,0-52c0-5.4,3.3-8.6,8.6-8.6
				C-111.9,381-102.5,381-84.4,381z M-84.3,386.1C-84.3,386.1-84.3,386.2-84.3,386.1c-18.6,0-28.5,0-47.1,0c-1.8,0-2.1,0.2-2.1,2.2
				c0,24,0,30.4,0,54.4c0,2,0.2,2.2,2.2,2.2c37.2,0,56.7,0,93.8,0c2.1,0,2.3-0.2,2.3-2.4c0-23.9,0-30.1,0-54c0-2.2-0.2-2.4-2.3-2.4
				C-56.1,386.1-65.8,386.1-84.3,386.1z"/>
		</g>
	</g>
</g>
</svg>
