<?xml version="1.0" encoding="utf-8"?>
<!-- Generator: Adobe Illustrator 19.1.0, SVG Export Plug-In . SVG Version: 6.00 Build 0)  -->
<svg version="1.1" id="Layer_1" xmlns="http://www.w3.org/2000/svg" xmlns:xlink="http://www.w3.org/1999/xlink" x="0px" y="0px"
	 viewBox="0 0 212 100" style="enable-background:new 0 0 212 100;" xml:space="preserve">
<style type="text/css">
	.st0{fill:#FFF;}
</style>
<path class="st0" d="M207.1,100.1H4.9c-2.4,0-4.4-2-4.4-4.4v0c0-2.4,2-4.4,4.4-4.4h202.2c2.4,0,4.4,2,4.4,4.4v0
	C211.5,98.2,209.5,100.1,207.1,100.1z"/>
<g>
	<g>
		<path class="st0" d="M162,90.5c-0.8-5.2-3.1-17.6-6.3-21.8c-1.7-2.2-8.2-5.7-9.5-6.4c-0.3-0.2-0.7-0.1-1,0.1
			c-1.4,1.1-3,1.9-4.7,2.3c-0.3,0.1-0.5,0.3-0.6,0.6l-1.7,4.5l-1.7-4.5c-0.1-0.3-0.3-0.5-0.6-0.6c-1.7-0.4-3.2-1.1-4.7-2.3
			c-0.3-0.2-0.7-0.3-1-0.1c-1.3,0.7-7.8,4.2-9.5,6.4c-3.2,4.1-5.5,16.6-6.3,21.8c0,0.3,0,0.5,0.2,0.7c0.2,0.2,0.4,0.3,0.7,0.3h45.8
			c0.3,0,0.5-0.1,0.7-0.3C162,91,162,90.8,162,90.5z"/>
		<path class="st0" d="M125.5,44.6c-1.4,0.8-3.1,2-3.8,3.9c-0.7,1.9-0.4,4,0.9,6.2c-0.1,0.4,0,0.8,0.2,1.2l0.5,0.8
			c0.3,0.4,0.7,0.6,1.2,0.6c0.3,0,0.6-0.1,0.9-0.3c0.3-0.2,0.6-0.6,0.6-1c0.1-0.4,0-0.8-0.2-1.1l-0.5-0.8c-0.2-0.3-0.5-0.5-0.8-0.6
			c-1-1.6-1.2-3.1-0.7-4.3c0.3-0.8,1-1.5,1.7-2.1c0,0.5,0,0.9,0,1.4c0,8,5.8,14.5,12.8,14.5c7.1,0,12.8-6.5,12.8-14.5
			c0-8-1.2-14.5-12.8-14.5C128.6,34.2,126.1,38.6,125.5,44.6z"/>
		<path class="st0" d="M116.8,66.5h-10.6H87.5H58.1v-48h77.4v11.7c0.7-0.1,1.5-0.1,2.2-0.1c2.2,0,4.2,0.2,6,0.7V14
			c0-1.4-1.1-2.5-2.5-2.5H52.4c-1.4,0-2.5,1.1-2.5,2.5V71c0,1.4,1.1,2.5,2.5,2.5h31.4c-0.6,3.4-1.8,9.4-4.6,15.3
			c-0.4,0.8-0.3,1.7,0.2,2.4c0.5,0.7,1.3,1.2,2.1,1.2H110c-0.2-0.8-0.3-1.6-0.2-2.4c0.5-2.8,1-6,1.7-9.1c-0.8-3-1.4-5.6-1.7-7.4h3.7
			C114.5,70.7,115.5,68.2,116.8,66.5z"/>
		<path class="st0" d="M104.3,39.3l-6.3-10.8c-0.3-0.6-1-0.9-1.7-0.9c-0.7,0-1.3,0.4-1.6,1l-9.5,18.2L79.6,40
			c-0.4-0.4-0.9-0.7-1.5-0.7H63.9c-1,0-1.9,0.8-1.9,1.9s0.8,1.9,1.9,1.9h13.3l6.7,8.4c0.4,0.5,0.9,0.7,1.5,0.7c0.1,0,0.1,0,0.2,0
			c0.6-0.1,1.2-0.4,1.5-1l9.3-17.8l5.2,8.8c0.3,0.6,1,0.9,1.6,0.9h15.6c1,0,1.9-0.8,1.9-1.9s-0.8-1.9-1.9-1.9L104.3,39.3L104.3,39.3
			z"/>
	</g>
</g>
</svg>
