<?xml version="1.0" encoding="utf-8"?>
<!-- Generator: Adobe Illustrator 19.1.0, SVG Export Plug-In . SVG Version: 6.00 Build 0)  -->
<svg version="1.1" id="Layer_1" xmlns="http://www.w3.org/2000/svg" xmlns:xlink="http://www.w3.org/1999/xlink" x="0px" y="0px"
	 viewBox="-191 370.9 212 100" style="enable-background:new -191 370.9 212 100;" xml:space="preserve">
<style type="text/css">
	.st0{fill:#FFF;}
</style>
<path class="st0" d="M16.1,471h-202.2c-2.4,0-4.4-2-4.4-4.4l0,0c0-2.4,2-4.4,4.4-4.4H16.1c2.4,0,4.4,2,4.4,4.4l0,0
	C20.5,469.1,18.5,471,16.1,471z"/>
<g>
	<g>
		<path class="st0" d="M-91.8,402.3c0,2-0.3,3.8-0.9,5.6c-0.3,0.9-5.2,0.2-6.6,0c-0.5,1,4.4,4.5,3.8,5.4c-3.3,4.3-8.5,7.1-14.3,7.1
			c-10,0-18-8.1-18-18s8.1-18,18-18S-91.8,392.3-91.8,402.3z"/>
		<path class="st0" d="M-111.7,443.4c2.1,4.1,7.8,9.7,12.4,12.8c1.9,1.3,4.5,1.5,6.7,1.1c2.5-0.5,3.9-1.7,5.5-3.6
			c2.8-3.3,5.3-6.9,7.5-10.6c2.3-3.7,4.1-7.5,4.4-11.9c0.2-2.8-1.5-4.6-4.2-4.7c-1.6,0-3.1,0.7-4.1,2l-10.2,13.9
			c0,0-1.4-3.9-7.5-13.5c-1-1.6-2.7-2.7-4.6-3.1c-8.5-1.5-13,1-13,1c-2.6,17.3-1.7,31.1-1.2,34.4c0,0,7.3,8.6,21.9,8.6
			c0.7-5.4,0.7-11,0.7-11S-105.5,453.1-111.7,443.4z"/>
		<polygon class="st0" points="-78.5,431.7 -81.7,431.7 -83,417.3 -84.3,414 -81.7,409.7 -77.1,410.9 		"/>
		<path class="st0" d="M-45.5,446.7c-2,0-3.6-1.6-3.6-3.6v-60.3c0-2,1.6-3.6,3.6-3.6c2,0,3.6,1.6,3.6,3.6v60.3
			C-41.9,445.1-43.5,446.7-45.5,446.7z"/>
		<path class="st0" d="M-54,451c-1.2,0-2.1-0.9-2.1-2.1v-8.2c0-1.2,0.9-2.1,2.1-2.1s2.1,0.9,2.1,2.1v8.2
			C-51.9,450.1-52.9,451-54,451z"/>
		<path class="st0" d="M-61.4,438.5c-1,0-1.8-0.8-1.8-1.8v-37.2c0-1,0.8-1.8,1.8-1.8s1.8,0.8,1.8,1.8v37.2
			C-59.6,437.7-60.4,438.5-61.4,438.5z"/>
		<path class="st0" d="M-62.8,401.1L-62.8,401.1c-0.7-0.8-0.7-2.1,0.1-3.1l12.4-15.6c3.6-4.7,5.4-3.4,6.9-2.1h0
			c1.6,1.3,0.6,4.5-1.8,6.8L-60,401.2C-60.9,402-62.1,402-62.8,401.1z"/>
		<path class="st0" d="M-42.3,444.9L-42.3,444.9c1-1.8-0.8-4-3.5-4.9l-15.1-4.9c-0.8-0.3-1.7,0.1-2.2,0.9l0,0
			c-0.5,0.8,0.5,2,1.2,2.4l13,7.1C-46.4,446.9-43.2,446.7-42.3,444.9z"/>
		<ellipse class="st0" cx="-54" cy="451" rx="8" ry="2.1"/>
		<ellipse class="st0" cx="-54" cy="451.6" rx="8" ry="2.1"/>
		<ellipse class="st0" cx="-54" cy="451.9" rx="8" ry="2.1"/>
	</g>
</g>
</svg>
