<?xml version="1.0" encoding="utf-8"?>
<!-- Generator: Adobe Illustrator 19.1.0, SVG Export Plug-In . SVG Version: 6.00 Build 0)  -->
<svg version="1.1" id="Capa_1" xmlns="http://www.w3.org/2000/svg" xmlns:xlink="http://www.w3.org/1999/xlink" x="0px" y="0px"
	 viewBox="-193 387.8 212 100" style="enable-background:new -193 387.8 212 100;" xml:space="preserve">
<style type="text/css">
	.st0{fill:#FFF;}
</style>
<path class="st0" d="M-42.8,446.5v3.1c0,1.2-1,2.2-2.2,2.2h-43.6v5.4h1.3c1.2,0,2.2,1,2.2,2.2v8.8h33.7c1.2,0,2.2,1,2.2,2.2v6.9
	c0,1.2-1,2.2-2.2,2.2h-70.1c-1.2,0-2.2-1-2.2-2.2v-6.9c0-1.2,1-2.2,2.2-2.2h18.1v-8.8c0-1.2,1-2.2,2.2-2.2h1.3v-5.4H-128
	c-1.2,0-2.2-1-2.2-2.2v-3.1c0-1.2,1-2.2,2.2-2.2h3.2c-0.1-0.5-0.2-1-0.2-1.5c0-4.1,3.3-7.4,7.4-7.4c3.8,0,6.9,2.8,7.3,6.4
	c2.4-5,9.2-8.6,17.4-8.6h26.6c9.7,0,17.6,4.7,19,11.1h2C-43.8,444.3-42.8,445.3-42.8,446.5z M-102.1,408l-10,5.1
	c-0.1-0.2-0.2-0.3-0.3-0.4l-7.4-7.5l14.7-9.6c1-0.7,1.3-2,0.6-3c-0.7-1-2-1.3-3-0.6l-16.9,11.1c-0.5,0.4-0.9,0.9-1,1.6
	c-0.1,0.6,0.2,1.3,0.6,1.8l8.7,8.8l-9.4,4.8c-1.1,0.5-1.5,1.9-1,2.9c0.4,0.8,1.1,1.2,1.9,1.2c0.3,0,0.7-0.1,1-0.2l23.4-11.9
	c1.1-0.5,1.5-1.9,1-2.9C-99.7,407.9-101,407.5-102.1,408z M-47.8,418.4l-10.3-5.3l3-14.5c0.2-0.9-0.2-1.9-1.1-2.3l-13.3-7.3
	c-1.1-0.6-2.4-0.2-3,0.9c-0.6,1.1-0.2,2.4,0.9,3l11.9,6.5l-2.4,11.7l-9.6-4.9c-1.1-0.5-2.4-0.1-2.9,1c-0.5,1.1-0.1,2.4,1,2.9
	l24,12.2c0.3,0.2,0.7,0.2,1,0.2c0.8,0,1.6-0.4,1.9-1.2C-46.3,420.3-46.7,419-47.8,418.4z"/>
<path class="st0" d="M14.6,487.8h-202.2c-2.4,0-4.4-2-4.4-4.4v0c0-2.4,2-4.4,4.4-4.4H14.6c2.4,0,4.4,2,4.4,4.4v0
	C19,485.8,17,487.8,14.6,487.8z"/>
</svg>
